<?xml version="1.0" encoding="UTF-8" standalone="no"?>
<!-- Created with Inkscape (http://www.inkscape.org/) -->

<svg
   xmlns:dc="http://purl.org/dc/elements/1.1/"
   xmlns:cc="http://creativecommons.org/ns#"
   xmlns:rdf="http://www.w3.org/1999/02/22-rdf-syntax-ns#"
   xmlns:svg="http://www.w3.org/2000/svg"
   xmlns="http://www.w3.org/2000/svg"
   xmlns:sodipodi="http://sodipodi.sourceforge.net/DTD/sodipodi-0.dtd"
   xmlns:inkscape="http://www.inkscape.org/namespaces/inkscape"
   width="744.09448819"
   height="1052.3622047"
   id="svg3834"
   version="1.1"
   inkscape:version="0.48.1 r9760"
   sodipodi:docname="cat-face.svg">
  <defs
     id="defs3836" />
  <sodipodi:namedview
     id="base"
     pagecolor="#ffffff"
     bordercolor="#666666"
     borderopacity="1.0"
     inkscape:pageopacity="0.0"
     inkscape:pageshadow="2"
     inkscape:zoom="2.8"
     inkscape:cx="176.92461"
     inkscape:cy="366.32344"
     inkscape:document-units="px"
     inkscape:current-layer="g4394"
     showgrid="false"
     showguides="true"
     inkscape:guide-bbox="true"
     inkscape:snap-bbox="false"
     inkscape:bbox-paths="false"
     inkscape:snap-nodes="false"
     inkscape:window-width="919"
     inkscape:window-height="799"
     inkscape:window-x="294"
     inkscape:window-y="7"
     inkscape:window-maximized="0">
    <sodipodi:guide
       orientation="1,0"
       position="344.46202,376.7869"
       id="guide3866" />
  </sodipodi:namedview>
  <metadata
     id="metadata3839">
    <rdf:RDF>
      <cc:Work
         rdf:about="">
        <dc:format>image/svg+xml</dc:format>
        <dc:type
           rdf:resource="http://purl.org/dc/dcmitype/StillImage" />
        <dc:title />
      </cc:Work>
    </rdf:RDF>
  </metadata>
  <g
     inkscape:label="Layer 1"
     inkscape:groupmode="layer"
     id="layer1">
    <g
       id="g4394"
       transform="matrix(0.19841988,0,0,0.19841988,65.19261,613.52746)">
      <path
         sodipodi:nodetypes="ccsccccsscc"
         inkscape:connector-curvature="0"
         id="path3842"
         d="M 961.55744,51.98887 695.7252,221.99699 c -53.77806,-21.85673 -117.54171,-34.15524 -181.61684,-34.15524 -66.79796,0 -129.81337,13.34316 -185.26788,36.97164 L 82.226292,56.648739 127.4423,451.1495 c -1.70406,12.43486 -1.46945,50.77953 -6.14487,67.18393 -44.692252,147.75681 170.44154,246.16796 392.81093,246.16796 222.36939,0 452.20098,-108.34278 412.47453,-246.16796 -6.99784,-24.27796 -3.49406,-49.89261 -10.03664,-73.53363 z"
         style="fill:none;stroke:#000000;stroke-width:1.79233598999999999;stroke-miterlimit:4;stroke-opacity:1;stroke-dasharray:none;stroke-dashoffset:0" />
      <g
         id="g4388">
        <path
           style="fill:none;stroke:#ff2222;stroke-width:1.64471984;stroke-miterlimit:4;stroke-opacity:1;stroke-dasharray:none;stroke-dashoffset:0"
           d="m 295.78288,391.70068 c -25.95424,-0.19906 -44.75988,6.28811 -48.51924,18.81148 -6.33154,21.09199 32.35097,51.3631 86.39919,67.58771 0.66522,0.1997 1.34089,0.37178 2.0045,0.56537 -1.74044,-9.27795 -2.87826,-23.60956 -2.87826,-39.78166 0,-17.74352 1.40644,-33.35092 3.44364,-42.40293 -14.52459,-3.0992 -28.27167,-4.68657 -40.44983,-4.77997 z m 48.98181,6.73307 c 1.80873,9.24877 2.98105,23.90992 2.98105,40.44983 0,17.59845 -1.33154,33.06183 -3.34083,42.14594 49.65427,12.64515 92.67098,7.91573 98.58039,-11.77002 6.33155,-21.09199 -32.35096,-51.31171 -86.39919,-67.53631 -3.98882,-1.19739 -7.90324,-2.31055 -11.82142,-3.28944 z"
           id="path3856"
           inkscape:connector-curvature="0" />
        <path
           inkscape:connector-curvature="0"
           id="path3864"
           d="m 716.83115,391.70068 c 25.95423,-0.19906 44.75988,6.28811 48.51923,18.81148 6.33155,21.09199 -32.35096,51.3631 -86.39919,67.58771 -0.66522,0.1997 -1.34089,0.37178 -2.0045,0.56537 1.74044,-9.27795 2.87826,-23.60956 2.87826,-39.78166 0,-17.74352 -1.40643,-33.35092 -3.44363,-42.40293 14.52459,-3.0992 28.27166,-4.68657 40.44983,-4.77997 z m -48.98181,6.73307 c -1.80874,9.24877 -2.98106,23.90992 -2.98106,40.44983 0,17.59845 1.33155,33.06183 3.34084,42.14594 -49.65427,12.64515 -92.67098,7.91573 -98.58039,-11.77002 -6.33155,-21.09199 32.35096,-51.31171 86.39918,-67.53631 3.98883,-1.19739 7.90324,-2.31055 11.82143,-3.28944 z"
           style="fill:none;stroke:#ff2222;stroke-width:1.64471984;stroke-miterlimit:4;stroke-opacity:1;stroke-dasharray:none;stroke-dashoffset:0"
           sodipodi:nodetypes="ssccscscscssc" />
        <path
           style="fill:none;stroke:#ff2222;stroke-width:1.64471984;stroke-miterlimit:4;stroke-opacity:1;stroke-dashoffset:0"
           inkscape:transform-center-y="13.200172"
           d="m 559.8351,538.46404 c 14.07006,27.04326 -45.72674,79.20104 -45.72674,79.20104 0,0 -62.48919,-53.73882 -45.72673,-79.20104 7.03157,-10.68099 20.48783,-26.80548 45.43676,0 23.78657,-30.72223 40.82239,-9.9837 46.01671,0 z"
           id="path3868"
           inkscape:connector-curvature="0"
           sodipodi:nodetypes="scscs" />
        <path
           sodipodi:nodetypes="cccssccsscssccssccccccc"
           inkscape:connector-curvature="0"
           style="font-size:medium;font-style:normal;font-variant:normal;font-weight:normal;font-stretch:normal;text-indent:0;text-align:start;text-decoration:none;line-height:normal;letter-spacing:normal;word-spacing:normal;text-transform:none;direction:ltr;block-progression:tb;writing-mode:lr-tb;text-anchor:start;baseline-shift:baseline;color:#000000;fill:none;stroke:#ff0d0d;stroke-width:1.64471984;stroke-miterlimit:4;stroke-opacity:1;stroke-dasharray:none;marker:none;visibility:visible;display:inline;overflow:visible;enable-background:accumulate;font-family:Sans;-inkscape-font-specification:Sans"
           d="m 508.26012,634.09126 c 0,1.01032 0.0164,2.00013 0.0513,2.98105 0.005,0.15214 -0.007,0.31112 0,0.46258 -0.64085,14.26084 -5.3097,23.30446 -11.82142,29.55356 -7.02221,6.73901 -16.71861,10.31586 -26.88089,11.92422 -20.32446,3.21671 -44.66434,-14.90527 -44.66434,-14.90527 l -2.72407,11.20465 c 0,0 25.89937,18.7452 49.1874,15.05946 11.64403,-1.84285 23.71607,-6.05192 33.04859,-15.00806 3.82156,-3.66743 7.07337,-8.15194 9.61133,-13.41475 2.53797,5.26281 5.78978,9.74732 9.61134,13.41475 9.33251,8.95614 21.40456,13.16521 33.04858,15.00806 23.28804,3.68574 49.18741,-15.05946 49.18741,-15.05946 l -2.72407,-11.20465 c 0,0 -24.33988,18.12198 -44.66442,14.90527 -10.16228,-1.60836 -19.85868,-5.18521 -26.88089,-11.92422 -6.51173,-6.2491 -11.18058,-15.29272 -11.82143,-29.55356 0.005,-0.11776 -0.005,-0.24154 0,-0.35978 -10e-4,-0.035 0.001,-0.0676 0,-0.1028 0.0352,-0.98092 0.0513,-1.97073 0.0513,-2.98105 l -0.1028,0 -11.41024,0 z"
           id="path3871" />
        <path
           sodipodi:type="star"
           style="fill:none;stroke:#ff0000;stroke-width:0.35433072;stroke-miterlimit:4;stroke-opacity:1;stroke-dasharray:none"
           id="path3002"
           sodipodi:sides="3"
           sodipodi:cx="7.0710678"
           sodipodi:cy="537.18439"
           sodipodi:r1="23.495548"
           sodipodi:r2="11.747774"
           sodipodi:arg1="0.52359878"
           sodipodi:arg2="1.5707963"
           inkscape:flatsided="false"
           inkscape:rounded="0"
           inkscape:randomized="0"
           d="m 27.418809,548.93216 -20.3477409,0 -20.3477421,0 L -3.1028032,531.3105 7.0710679,513.68884 17.244938,531.3105 z"
           transform="matrix(2.2539032,-1.4571661,1.6961953,2.6236266,-762.53063,-1193.6365)"
           inkscape:transform-center-y="-0.11626736"
           inkscape:transform-center-x="-2.5730358" />
        <path
           inkscape:transform-center-x="2.5730357"
           inkscape:transform-center-y="-0.11626736"
           transform="matrix(-2.2539032,-1.4571661,-1.6961953,2.6236266,1791.6941,-1183.4546)"
           d="m 27.418809,548.93216 -20.3477409,0 -20.3477421,0 L -3.1028032,531.3105 7.0710679,513.68884 17.244938,531.3105 z"
           inkscape:randomized="0"
           inkscape:rounded="0"
           inkscape:flatsided="false"
           sodipodi:arg2="1.5707963"
           sodipodi:arg1="0.52359878"
           sodipodi:r2="11.747774"
           sodipodi:r1="23.495548"
           sodipodi:cy="537.18439"
           sodipodi:cx="7.0710678"
           sodipodi:sides="3"
           id="path3004"
           style="fill:none;stroke:#ff0000;stroke-width:0.35433072;stroke-miterlimit:4;stroke-opacity:1;stroke-dasharray:none"
           sodipodi:type="star" />
      </g>
    </g>
  </g>
</svg>
