<?xml version="1.0" encoding="UTF-8" standalone="no"?>
<!-- Created with Inkscape (http://www.inkscape.org/) -->

<svg
   xmlns:dc="http://purl.org/dc/elements/1.1/"
   xmlns:cc="http://creativecommons.org/ns#"
   xmlns:rdf="http://www.w3.org/1999/02/22-rdf-syntax-ns#"
   xmlns:svg="http://www.w3.org/2000/svg"
   xmlns="http://www.w3.org/2000/svg"
   xmlns:sodipodi="http://sodipodi.sourceforge.net/DTD/sodipodi-0.dtd"
   xmlns:inkscape="http://www.inkscape.org/namespaces/inkscape"
   width="744.09448"
   height="1052.3622"
   id="svg2"
   version="1.1"
   inkscape:version="0.48.1 r9760"
   sodipodi:docname="diamond-wonk-earring.svg">
  <defs
     id="defs4" />
  <sodipodi:namedview
     id="base"
     pagecolor="#ffffff"
     bordercolor="#666666"
     borderopacity="1.0"
     inkscape:pageopacity="0.0"
     inkscape:pageshadow="2"
     inkscape:zoom="1.979899"
     inkscape:cx="144.51558"
     inkscape:cy="442.89966"
     inkscape:document-units="mm"
     inkscape:current-layer="layer1"
     showgrid="false"
     showguides="true"
     inkscape:guide-bbox="true"
     inkscape:snap-global="false"
     inkscape:window-width="1386"
     inkscape:window-height="856"
     inkscape:window-x="0"
     inkscape:window-y="0"
     inkscape:window-maximized="0"
     inkscape:snap-bbox="true"
     inkscape:bbox-paths="true"
     inkscape:bbox-nodes="true"
     inkscape:snap-bbox-edge-midpoints="true"
     inkscape:snap-bbox-midpoints="true"
     inkscape:object-paths="true"
     inkscape:object-nodes="true"
     inkscape:snap-smooth-nodes="false"
     inkscape:snap-intersection-paths="true"
     units="mm">
    <sodipodi:guide
       orientation="1,0"
       position="98.392857,436.07143"
       id="guide3801" />
    <sodipodi:guide
       orientation="0,1"
       position="153.03811,562.14989"
       id="guide3031" />
  </sodipodi:namedview>
  <metadata
     id="metadata7">
    <rdf:RDF>
      <cc:Work
         rdf:about="">
        <dc:format>image/svg+xml</dc:format>
        <dc:type
           rdf:resource="http://purl.org/dc/dcmitype/StillImage" />
        <dc:title />
      </cc:Work>
    </rdf:RDF>
  </metadata>
  <g
     inkscape:label="Layer 1"
     inkscape:groupmode="layer"
     id="layer1"
     transform="translate(0,-2.5390623e-6)">
    <path
       id="path3784"
       style="fill:none;stroke:#0000ff;stroke-width:0.48551989000000001px;stroke-linecap:butt;stroke-linejoin:miter;stroke-opacity:1"
       d="m 155.26789,543.86434 c 4.5163,-10.93455 5.09804,-18.93777 7.26953,-28.12539 m -90.598711,28.08241 c -5.492678,-9.36585 -5.47464,-18.73173 -7.388833,-28.09758 m 7.393438,28.10785 c 14.076181,-9.37019 31.245296,-19.71802 41.814736,-29.08821 18.07526,8.32837 28.11282,19.63044 41.51713,29.11876 m 7.25883,-28.12353 c -23.41546,10.37761 -33.64991,18.8489 -48.77128,28.04953 m -49.212254,-28.0635 49.212254,28.0635 m -48.962363,22.76579 7.142947,-22.72234 c 4.421772,7.65815 10.907642,15.30864 18.604625,22.96675 8.692493,-7.52047 18.823931,-14.88166 23.214791,-23.0102 4.30956,6.10456 14.45796,15.15493 22.29239,23.0102 10.58715,-10.87722 14.22887,-16.38838 19.21236,-22.9362 4.81342,6.70946 5.65446,14.99728 7.37362,22.9362 m -48.88305,84.51184 c 6.80993,-28.12288 7.92062,-55.81027 22.30389,-84.51184 m -45.513995,0 c 9.26094,26.65816 15.729135,56.0905 23.207385,84.51949 M 51.529785,543.76094 c 0.987091,-9.34538 7.733265,-18.69079 13.017871,-28.03618 32.664601,-2.09779 65.329194,-0.22407 97.993814,0 1.42525,4.71184 13.36491,28.09378 13.36491,28.09378 z m 0,0 124.371695,0.0544 -62.14343,107.51362 z"
       inkscape:connector-curvature="0"
       sodipodi:nodetypes="ccccccccccccccccccccccccccccccc" />
    <path
       inkscape:connector-curvature="0"
       style="fill:none;stroke:#000000;stroke-width:0.56849474000000000px;stroke-linecap:butt;stroke-linejoin:miter;stroke-opacity:1"
       d="m 114.52082,490.89556 c -7.48119,0 -13.58267,5.97552 -13.58267,13.40701 0,1.11643 0.25781,2.20776 0.51579,3.24502 -0.63203,-0.003 -1.25923,0.002 -1.891254,0 l -0.08597,0 c -14.342608,-0.0396 -28.640546,0.27443 -42.983154,1.19552 -6.187743,10.94251 -14.060257,21.84918 -15.216037,32.79169 l 72.813465,125.95762 72.81347,-125.87223 c 0,0 -13.97703,-27.35998 -15.64587,-32.87708 -14.58291,-0.10001 -29.17298,-0.55693 -43.75685,-0.85394 0.31542,-1.13902 0.60176,-2.34803 0.60176,-3.5866 0,-7.43149 -6.10149,-13.40701 -13.58268,-13.40701 z"
       id="path3830" />
    <path
       id="path3807"
       d="m 121.46594,504.34239 c 0,3.81108 -3.11017,6.90057 -6.94675,6.90057 -3.83658,0 -6.94675,-3.08949 -6.94675,-6.90057 0,-3.8111 3.11017,-6.90057 6.94675,-6.90057 3.83658,0 6.94675,3.08947 6.94675,6.90057 z"
       style="fill:none;stroke:#ff0000;stroke-width:0.97149180999999996;stroke-miterlimit:4;stroke-opacity:1;stroke-dasharray:none"
       inkscape:connector-curvature="0" />
  </g>
</svg>
