<?xml version="1.0" encoding="UTF-8" standalone="no"?>
<!-- Created with Inkscape (http://www.inkscape.org/) -->

<svg
   xmlns:dc="http://purl.org/dc/elements/1.1/"
   xmlns:cc="http://creativecommons.org/ns#"
   xmlns:rdf="http://www.w3.org/1999/02/22-rdf-syntax-ns#"
   xmlns:svg="http://www.w3.org/2000/svg"
   xmlns="http://www.w3.org/2000/svg"
   xmlns:sodipodi="http://sodipodi.sourceforge.net/DTD/sodipodi-0.dtd"
   xmlns:inkscape="http://www.inkscape.org/namespaces/inkscape"
   width="744.09448819"
   height="1052.3622047"
   id="svg2"
   version="1.1"
   inkscape:version="0.48.1 r9760"
   sodipodi:docname="rabbiy.svg">
  <defs
     id="defs4" />
  <sodipodi:namedview
     id="base"
     pagecolor="#ffffff"
     bordercolor="#666666"
     borderopacity="1.0"
     inkscape:pageopacity="0.0"
     inkscape:pageshadow="2"
     inkscape:zoom="3.959798"
     inkscape:cx="323.20013"
     inkscape:cy="463.28537"
     inkscape:document-units="px"
     inkscape:current-layer="layer1"
     showgrid="false"
     showguides="true"
     inkscape:guide-bbox="true"
     inkscape:snap-global="false"
     inkscape:window-width="1384"
     inkscape:window-height="856"
     inkscape:window-x="0"
     inkscape:window-y="0"
     inkscape:window-maximized="1">
    <sodipodi:guide
       orientation="1,0"
       position="400.02041,688.92404"
       id="guide3321" />
    <sodipodi:guide
       orientation="0,1"
       position="365.89286,468.30357"
       id="guide3340" />
    <sodipodi:guide
       orientation="0,1"
       position="336.63334,580.83771"
       id="guide3362" />
  </sodipodi:namedview>
  <metadata
     id="metadata7">
    <rdf:RDF>
      <cc:Work
         rdf:about="">
        <dc:format>image/svg+xml</dc:format>
        <dc:type
           rdf:resource="http://purl.org/dc/dcmitype/StillImage" />
        <dc:title />
      </cc:Work>
    </rdf:RDF>
  </metadata>
  <g
     inkscape:groupmode="layer"
     id="layer7"
     inkscape:label="Head outline bottom (white)"
     style="display:inline">
    <path
       style="fill:none;stroke:#000000;stroke-width:0.01330015;stroke-miterlimit:4;stroke-opacity:1;stroke-dashoffset:0"
       d="m 333.75,515.84375 c -1.29161,4.4924 0.55085,12.73899 1.6875,14.84375 7.03033,11.313 16.27575,20.46573 19.625,34.9375 -1.11246,2.24671 -3.149,5.63763 -4.96875,8.3125 -5.52481,7.97762 0.32444,17.03738 7.8125,21.96875 -3.16529,2.97414 -3.35769,7.25928 -6.5625,9.25 -8.46692,5.34191 -14.0625,14.56532 -14.0625,25.03125 0,16.15908 13.33825,29.31772 30,29.875 l 0,-5.5 2.15625,0 0,5.5 c 16.67631,-0.54185 30.03125,-13.70582 30.03125,-29.875 0,-10.43177 -5.54819,-19.61912 -13.96875,-24.96875 -3.08223,-1.95816 -3.36878,-6.39197 -6.65625,-9.40625 7.7637,-5.0912 13.95894,-14.38902 7.71875,-21.875 -2.21803,-2.66083 -3.90678,-5.25685 -5.28125,-7.71875 2.95987,-13.89856 13.85526,-23.48227 20.0625,-33.21875 1.13665,-2.10474 2.94787,-10.38258 1.65625,-14.875 -7.41031,3.51072 -16.00206,9.07326 -17.75,12.46875 -4.00276,8.23489 -4.70224,17.99232 -8.34375,26.21875 -2.1776,-5.15948 -3.85713,-8.50164 -8.59375,-8.53125 -5.06178,-0.0318 -6.63967,2.11594 -8.46875,6.4375 -3.07727,-9.3171 -4.60418,-19.18169 -8.3125,-28.3125 -1.74794,-3.39549 -10.37093,-7.05179 -17.78125,-10.5625 z"
       id="path3329"
       inkscape:connector-curvature="0" />
    <path
       style="fill:none;stroke:#ff0000;stroke-width:0.01667705;stroke-miterlimit:4;stroke-opacity:1;stroke-dashoffset:0;display:inline"
       d="m 394.23844,630.17132 c 0,13.73491 -11.57796,24.86926 -25.86008,24.86926 -14.28211,0 -25.86006,-11.13435 -25.86006,-24.86926 0,-13.73492 11.57795,-24.86927 25.86006,-24.86927 14.28212,0 25.86008,11.13435 25.86008,24.86927 z"
       id="path3337"
       inkscape:connector-curvature="0" />
    <path
       inkscape:connector-curvature="0"
       id="path4976"
       d="m 394.23844,630.17132 c 0,13.73491 -11.57796,24.86926 -25.86008,24.86926 -14.28211,0 -25.86006,-11.13435 -25.86006,-24.86926 0,-13.73492 11.57795,-24.86927 25.86006,-24.86927 14.28212,0 25.86008,11.13435 25.86008,24.86927 z"
       style="fill:none;stroke:#ff0000;stroke-width:0.01667705;stroke-miterlimit:4;stroke-opacity:1;stroke-dashoffset:0;display:inline" />
  </g>
  <g
     style="display:none"
     inkscape:label="Head outline middle (black)"
     id="g3356"
     inkscape:groupmode="layer">
    <path
       style="fill:none;stroke:#000000;stroke-width:0.01330015;stroke-miterlimit:4;stroke-opacity:1;stroke-dashoffset:0"
       d="m 339.4375,524.71875 c -1.29163,4.49242 3.55084,10.61399 4.6875,12.71875 7.03032,11.313 8.71325,11.21573 12.0625,25.6875 -0.0755,0.15234 -1.29145,2.80652 -1.375,2.96875 -1.14864,2.23028 -3.0224,5.35025 -4.71875,7.84375 -5.52481,7.97762 0.32444,17.03738 7.8125,21.96875 -3.16529,2.97414 -3.35769,7.25928 -6.5625,9.25 -8.46692,5.34191 -14.0625,14.56532 -14.0625,25.03125 0,16.15908 13.33825,29.31772 30,29.875 l 0,-5.5 2.15625,0 0,5.5 c 16.67631,-0.54185 30.03125,-13.70582 30.03125,-29.875 0,-10.43177 -5.54819,-19.61912 -13.96875,-24.96875 -3.08223,-1.95816 -3.36878,-6.39197 -6.65625,-9.40625 7.7637,-5.0912 13.95895,-14.38903 7.71875,-21.875 -2.06487,-2.47711 -3.67737,-4.91063 -5,-7.21875 -0.0981,-0.1712 -1.49884,-3.11126 -1.59375,-3.28125 2.95987,-13.89855 11.26152,-20.54477 17.46875,-30.28125 1.13665,-2.10474 2.94786,-3.41384 1.65625,-7.90625 -7.41032,3.51072 -9.0958,3.72951 -10.84375,7.125 -4.00276,8.23489 -6.76473,18.27356 -10.40625,26.5 -0.0757,-0.17939 -1.11289,-2.41877 -1.1875,-2.59375 -2.07103,-4.85745 -3.77181,-7.97142 -8.34375,-8 -4.84832,-0.0304 -6.51097,1.9425 -8.25,5.90625 -0.0765,0.17451 -1.36037,3.13026 -1.4375,3.3125 -3.07728,-9.3171 -2.51044,-10.77544 -6.21875,-19.90625 -1.74795,-3.3955 -5.55845,-9.36428 -12.96875,-12.875 z"
       id="path3358"
       inkscape:connector-curvature="0" />
    <path
       inkscape:connector-curvature="0"
       id="path3360"
       d="m 394.23844,630.17132 c 0,13.73491 -11.57796,24.86926 -25.86008,24.86926 -14.28211,0 -25.86006,-11.13435 -25.86006,-24.86926 0,-13.73492 11.57795,-24.86927 25.86006,-24.86927 14.28212,0 25.86008,11.13435 25.86008,24.86927 z"
       style="fill:none;stroke:#ff0000;stroke-width:0.01667705;stroke-miterlimit:4;stroke-opacity:1;stroke-dashoffset:0;display:inline" />
  </g>
  <g
     inkscape:label="Top layer (white)"
     inkscape:groupmode="layer"
     id="layer1"
     style="display:none">
    <path
       sodipodi:type="arc"
       style="fill:none;stroke:#ff0000;stroke-width:0.1;stroke-miterlimit:4;stroke-opacity:1;stroke-dasharray:none;stroke-dashoffset:0"
       id="path3003"
       sodipodi:cx="352.14285"
       sodipodi:cy="366.64789"
       sodipodi:rx="15"
       sodipodi:ry="24.285715"
       d="m 367.14285,366.64789 a 15,24.285715 0 1 1 -30,0 15,24.285715 0 1 1 30,0 z"
       transform="matrix(0.12760977,-0.03748532,0.03748532,0.12760977,303.10099,533.69416)" />
    <path
       transform="matrix(-0.12760977,-0.03748532,-0.03748532,0.12760977,432.69869,533.69416)"
       d="m 367.14285,366.64789 a 15,24.285715 0 1 1 -30,0 15,24.285715 0 1 1 30,0 z"
       sodipodi:ry="24.285715"
       sodipodi:rx="15"
       sodipodi:cy="366.64789"
       sodipodi:cx="352.14285"
       id="path3306"
       style="fill:none;stroke:#ff0000;stroke-width:0.1;stroke-miterlimit:4;stroke-opacity:1;stroke-dasharray:none;stroke-dashoffset:0"
       sodipodi:type="arc" />
    <path
       id="path3310"
       style="fill:none;stroke:#ff0000;stroke-width:0.03992588px;stroke-linecap:butt;stroke-linejoin:miter;stroke-opacity:1"
       d="m 368.05003,583.91679 c -0.86281,0.005 -2.99782,-3.24202 -2.96279,-3.6608 1.59227,0.34976 2.81782,0.15586 3.01974,1.39691 0.13491,-1.23525 1.42754,-1.08538 2.94623,-1.39691 0.035,0.41878 -2.09999,3.66576 -2.96278,3.6608"
       inkscape:connector-curvature="0"
       sodipodi:nodetypes="ccccc" />
    <path
       sodipodi:nodetypes="cc"
       inkscape:connector-curvature="0"
       id="path3312"
       d="m 368.21877,583.9327 c 0.13464,15.45425 15.9427,8.2206 17.11484,5.93157"
       style="fill:none;stroke:#0000ff;stroke-width:0.13300151px;stroke-linecap:butt;stroke-linejoin:miter;stroke-opacity:1" />
    <path
       sodipodi:nodetypes="sssss"
       inkscape:connector-curvature="0"
       id="path3316"
       d="m 386.5675,573.92399 c 9.07063,10.8815 -8.16642,25.65029 -18.2402,25.65029 -10.07378,0 -26.30561,-14.00416 -18.24021,-25.65029 4.39388,-6.34459 7.89791,1.69444 17.9715,1.75748 8.97826,0.0562 12.17662,-9.35396 18.50891,-1.75748 z"
       style="fill:none;stroke:#0000ff;stroke-width:0.01330015;stroke-miterlimit:4;stroke-opacity:1;stroke-dashoffset:0" />
    <path
       style="fill:none;stroke:#000000;stroke-width:0.01330015;stroke-miterlimit:4;stroke-opacity:1;stroke-dashoffset:0;display:inline"
       d="m 368.3125,548.28125 c -5.06178,-0.0318 -6.63967,2.11594 -8.46875,6.4375 L 355.0625,565.625 c -1.11246,2.24671 -3.149,5.63763 -4.96875,8.3125 -5.52481,7.97762 0.32444,17.03738 7.8125,21.96875 -3.16529,2.97414 -3.35769,7.25928 -6.5625,9.25 -8.46692,5.34191 -14.0625,14.56532 -14.0625,25.03125 0,16.15908 13.33825,29.31772 30,29.875 l 0,-5.5 2.15625,0 0,5.5 c 16.67631,-0.54185 30.03125,-13.70582 30.03125,-29.875 0,-10.43177 -5.54819,-19.61912 -13.96875,-24.96875 -3.08223,-1.95816 -3.36878,-6.39197 -6.65625,-9.40625 7.7637,-5.0912 13.95894,-14.38902 7.71875,-21.875 -2.21803,-2.66083 -3.90678,-5.25685 -5.28125,-7.71875 l -4.375,-9.40625 c -2.1776,-5.15948 -3.85713,-8.50164 -8.59375,-8.53125 z"
       id="path3348"
       inkscape:connector-curvature="0" />
    <path
       style="fill:none;stroke:#0000ff;stroke-width:0.13300151px;stroke-linecap:butt;stroke-linejoin:miter;stroke-opacity:1"
       d="m 368.2068,583.9327 c -0.13465,15.45425 -15.63196,8.2206 -16.80411,5.93157"
       id="path3354"
       inkscape:connector-curvature="0"
       sodipodi:nodetypes="cc" />
    <path
       style="fill:none;stroke:#ff0000;stroke-width:0.01667705;stroke-miterlimit:4;stroke-opacity:1;stroke-dashoffset:0;display:inline"
       d="m 394.23844,630.17132 c 0,13.73491 -11.57796,24.86926 -25.86008,24.86926 -14.28211,0 -25.86006,-11.13435 -25.86006,-24.86926 0,-13.73492 11.57795,-24.86927 25.86006,-24.86927 14.28212,0 25.86008,11.13435 25.86008,24.86927 z"
       id="path3045"
       inkscape:connector-curvature="0" />
  </g>
</svg>
